<?xml version="1.0" standalone="no"?><!DOCTYPE svg PUBLIC "-//W3C//DTD SVG 1.1//EN" "http://www.w3.org/Graphics/SVG/1.1/DTD/svg11.dtd"><svg t="1766590026004" class="icon" viewBox="0 0 1024 1024" version="1.1" xmlns="http://www.w3.org/2000/svg" p-id="1180" xmlns:xlink="http://www.w3.org/1999/xlink" width="200" height="200"><path d="M293.4 951c-28.4 0-44.3-13.2-52.7-24.2-5.9-7.8-9.3-16.1-11.5-23.1-24.9-0.2-51.1-0.7-51.5-0.7h-1.9l-1.8-0.4c-2.9-0.6-29.6-6.6-58.2-29.6-26.4-21.2-59.3-61.4-66.4-132.9l-0.1-1.1v-1.1c1.6-120.4 0.2-357.6 0.2-370.7-0.3-5.5-1.3-35.6 11.2-69.3 12.7-34.4 42.1-79.3 109.8-98.4l2.6-0.7 155.2-0.4-48.8-47.4-0.7-0.9c-10.2-12.6-15.5-39.3 11.7-61.6 11.8-9.7 20.1-14.1 28.4-15.2 12.7-1.7 20.8 5.2 24.3 8.1 0.5 0.4 1.1 0.9 1.3 1.1 5.7 3.8 46.1 42.8 120.2 115.6l97.5 0.2C671.1 91 677.1 87 679.3 85.4c0.2-0.2 0.9-0.7 1.3-1.1 3.5-3 11.5-9.9 24.3-8.1 8.3 1.1 16.6 5.6 28.4 15.2 27.2 22.3 21.9 49 11.7 61.6l-0.7 0.9-45.9 44.5c83.9 0.3 144.7 0.3 145.4 0.3h2.2l2.1 0.5c1.3 0.3 31.8 7.2 62.4 31.1 28.3 22.2 62.5 63.8 64.2 135.7v0.8c-1.5 122.5 0 369.6 0 372.1v1c-0.1 1.4-1.8 34.4-17.6 70.1-21.6 49.1-59 79.9-108.1 89l-2.1 0.4-2.2-0.1c-19.3-0.6-32.8-0.7-41.8-0.6-1.3 4.6-3.1 9.7-5.6 14.9-11.4 23.7-31.8 37-57.3 37.5-34.3 0.5-58.9-17.3-68.4-48.7-60.7 0.2-257.2 1.1-314 1.4-1.5 4.3-3.5 8.9-6.2 13.6-12.3 21.6-33 33.6-58 33.6z m408.5-832.6c-0.1 0.1-0.2 0.1-0.2 0.2l0.2-0.2z m-380.1-2.9c0.1 0.1 0.2 0.1 0.3 0.2-0.1-0.1-0.2-0.2-0.3-0.2z" fill="#F7F8F8" p-id="1181"></path><path d="M175.9 218.7C60.6 251.2 69.5 366.5 69.5 366.5s1.5 246.8-0.2 371.7C81.7 863 178.1 883 178.1 883s38.4 0.7 66.5 0.7c3 8.1 5.2 47.3 48.8 47.3 43.6 0 48.8-47.3 48.8-47.3s319.2-1.5 345.8-1.5c1.5 13.3 8.1 49.5 51.7 48.8 43.6-0.7 46.6-51.7 46.6-51.7s14.8-1.5 59.1 0c103.4-19.2 109.4-140.4 109.4-140.4s-1.5-248.3 0-372.4C951.8 242.4 844 218.7 844 218.7s-85 0.1-194.6-0.5l80.2-77.8s12.8-15.8-8.9-33.5C699 89.2 697.9 97 690.6 102c-6.6 4.5-103.1 99.5-120.2 116.3l-113.8-0.2S340.7 104 333.4 99c-7.3-4.9-8.5-12.8-30.1 4.9-21.7 17.7-8.9 33.5-8.9 33.5l83.2 80.6-201.7 0.7z m689.8 542.8c0 19.6-15.5 35.5-34.6 35.5H201.8c-19.1 0-34.6-15.9-34.6-35.5V344.8c0-19.6 15.5-35.5 34.6-35.5H831c19.1 0 34.6 15.9 34.6 35.5v416.7z" fill="#1C9BCD" p-id="1182"></path><path d="M512 340c-116 0-210 94-210 210s94 210 210 210 210-94 210-210-94-210-210-210z m0 375c-91.1 0-165-73.9-165-165s73.9-165 165-165 165 73.9 165 165-73.9 165-165 165z" fill="#1C9BCD" p-id="1183"></path><path d="M512 490c-33.1 0-60 26.9-60 60 0 12.4-10.1 22.5-22.5 22.5S407 562.4 407 550c0-58 47-105 105-105 12.4 0 22.5 10.1 22.5 22.5S524.4 490 512 490z" fill="#1C9BCD" p-id="1184"></path></svg>